
<global>
amp_veltrack=0
ampeg_release=0.45
</global>

<group>
group_label=PP
lpc_hicc1=42
lpc_locc1=0

<region>
hikey=A4
hivel=127
lokey=G#4
loop_end=143109
loop_mode=loop_continuous
loop_start=49262
loop_xfade=11912
lovel=0
lpc=7VkSQnkJqcJNbYNCLxSswYHKekGz1GHAsH0Jwc+3g8DiAZhAQMQSQQp7MsGn2x1Bpxj0vy3azcCsjw5BADjgwOM4kUBC/djAG+oqQasYjcBOkKs/1gPdPvnMyMCrTqZA
lpc_rms=-28.83
offset=8673
pitch_keycenter=G#4
sample=Soprano_Shake_PP_G#4.opus
</region>

<region>
hikey=A3
hivel=127
lokey=G#3
loop_end=140089
loop_mode=loop_continuous
loop_start=48222
loop_xfade=11661
lovel=0
lpc=joQsQvPKs8KCV3ZCk9jzwULbvkHwKdnA9HEAQVwjh8FoEgZBPKTUQMrebcEdDFNBgcWrwLQ3ML8uhOW/lRwkQUPryMBl4NfAGrnfQPikwb8jLgg/1xb4P96/rMBfSnJA
lpc_rms=-29.78
offset=4737
pitch_keycenter=G#3
sample=Soprano_Shake_PP_G#3.opus
</region>

<region>
hikey=A2
hivel=127
lokey=G#2
loop_end=143672
loop_mode=loop_continuous
loop_start=49456
loop_xfade=11959
lovel=0
lpc=omGKQmaaD8OenrtCZGHKwe7uXj/QmhpBuExswKVyCT8Q+ijBGaVHQZAVHcHi4YBBNVEvwd8+YkALAFzAPTZSQCW+vsAmSQxBVinHwJxJjr63r7NA4UJsPxiuQcEYHvRA
lpc_rms=-23.94
offset=6146
pitch_keycenter=G#2
sample=Soprano_Shake_PP_G#2.opus
</region>

<region>
hikey=G4
hivel=127
lokey=F#4
loop_end=138253
loop_mode=loop_continuous
loop_start=47590
loop_xfade=11508
lovel=0
lpc=7hA7Qo3WzcLMGLdC6PdOwsNUl0EvEoRApyEvQQYN0MEsUZRBCUK8wNJoYMBaz79AZNMmP0JTisDcs1dAVX9EQBq/q8D8BTxAKrMSQKGkh8CG6+1A6rrAP5STg8GMTi9B
lpc_rms=-23.58
offset=799
pitch_keycenter=F#4
sample=Soprano_Shake_PP_F#4.opus
</region>

<region>
hikey=G3
hivel=127
lokey=F#3
loop_end=138447
loop_mode=loop_continuous
loop_start=47657
loop_xfade=11524
lovel=0
lpc=ggJGQg4It8LjSilCaXCqwf9nDkLxCwzBT/UuQLJ5WMFK3MFA7y8lwFYQT79gi6tAvTlGP53iwT+jXxDBomqlQLC3AsB/fTq/tqcyQP0yOz/9RKe+FrP7Py5BD8GykdBA
lpc_rms=-27.43
offset=4972
pitch_keycenter=F#3
sample=Soprano_Shake_PP_F#3.opus
</region>

<region>
hikey=F4
hivel=127
lokey=E4
loop_end=136032
loop_mode=loop_continuous
loop_start=46826
loop_xfade=11323
lovel=0
lpc=4MrjQiY+nMMhBp1DTXglw3U3qUI6GxvCjoIuQiuulMJ1QEBCcu+1wau2rsBUnjVCSkXBwe1qCsFp7IVAOsMKwYg09ECFchtByqajQDcTwsEMOoZB/eAUwTff5kDVDwzA
lpc_rms=-23.07
offset=967
pitch_keycenter=E4
sample=Soprano_Shake_PP_E4.opus
</region>

<region>
hikey=F3
hivel=127
lokey=E3
loop_end=139536
loop_mode=loop_continuous
loop_start=48032
loop_xfade=11615
lovel=0
lpc=I/bIQl18gMOvXm1Dk04Dw6WZnUI++RnC+vBiQinNpsLpmDBCF1cYwQKDs8BZJrxBneu0wc3BYEDi84VB7m58wR+o2D+pAQE/4VjLQNHVUcGhJPdAVTHpvyJLOUAeBFK/
lpc_rms=-24.40
offset=5894
pitch_keycenter=E3
sample=Soprano_Shake_PP_E3.opus
</region>

<region>
hikey=D#4
hivel=127
lokey=D4
loop_end=142032
loop_mode=loop_continuous
loop_start=48891
loop_xfade=11823
lovel=0
lpc=TCROQuZ6AMOK2O1CfO5vwpvC4kFvHQLBTso5QVeh2cHGm5hBXXMPwNY6y8B3j/ZACMLVwIZ3iEDRLqJABIYCwZ6JmkBxdei/Kcbav1EN/78kDCBBCb5FwXnFNUGvIZvA
lpc_rms=-28.38
offset=6819
pitch_keycenter=D4
sample=Soprano_Shake_PP_D4.opus
</region>

<region>
hikey=D#3
hivel=127
lokey=D3
loop_end=140755
loop_mode=loop_continuous
loop_start=48452
loop_xfade=11717
lovel=0
lpc=CbiEQq6HEMNBtOBCBVuPwvNpOUJkrYPBCiEeQrpRPMLA5+FBoPJmwScvkMD9EyZBF6YIwYVxB8C4XTNBeKEKwVE3GUHL26+/63G0v4x/XcDK0zi+zP1OwHjVHEBRpwJA
lpc_rms=-26.54
offset=4420
pitch_keycenter=D3
sample=Soprano_Shake_PP_D3.opus
</region>

<region>
hikey=F5
hivel=127
lokey=C5
loop_end=139216
loop_mode=loop_continuous
loop_start=47922
loop_xfade=11588
lovel=0
lpc=dP13Qgoa68K+HdtC/L6Uwq0dakKfmTHCecItQtT36cGMt75BLHKav0kqM8HwYtRBIAOywWy07UFSlKPBfGU+QdHf9EAPvxDBK2O/QdBx5sGxRAhCIK6twdZwC8GdurJB
lpc_rms=-23.50
offset=1179
pitch_keycenter=C5
sample=Soprano_Shake_PP_C5.opus
</region>

<region>
hikey=C#4
hivel=127
lokey=C4
loop_end=142603
loop_mode=loop_continuous
loop_start=49088
loop_xfade=11870
lovel=0
lpc=4DSRQuaQJMP+XwZDcaiXwipITkJRuGjBOemXQahO7MFGJiFBrGSzvwnanMAIVjdBKhwwwRjWZkBNXcVAaNbcv8FYUUB8cQzAta6BwEhCR74GG58+PLFFwKUsCUHmaRvA
lpc_rms=-27.20
offset=6644
sample=Soprano_Shake_PP_C4.opus
</region>

<region>
hikey=C#3
hivel=127
lokey=C3
loop_end=137627
loop_mode=loop_continuous
loop_start=47375
loop_xfade=11456
lovel=0
lpc=lQ25QjnkVcMiPzFDwU2gwsJV0UHL25W/kYuDQX/Q18En3ChBsXf/P6I1AcHNEdJAuCcBQKh3g8ARoNNA91g/wXy9SEFogNfATMAQQcqMbcFicdxAfTh6QKM5SMFYPhRB
lpc_rms=-22.84
offset=3459
pitch_keycenter=C3
sample=Soprano_Shake_PP_C3.opus
</region>

<region>
hikey=B4
hivel=127
lokey=A#4
loop_end=143832
loop_mode=loop_continuous
loop_start=49511
loop_xfade=11973
lovel=0
lpc=KXFIQhVs68K+cupCEI2kwmqPgUIT6UTCsrgfQjuS9cHlxpJBYRofwUxPzz8dBPhAlPwqwGLSRT/1QB7AZ6miwHVsJkFvRG7AU1sPQPxbNUANtAjB25BPQWeQncEyCT5B
lpc_rms=-26.13
offset=5954
pitch_keycenter=A#4
sample=Soprano_Shake_PP_A#4.opus
</region>

<region>
hikey=B3
hivel=127
lokey=A#3
loop_end=146248
loop_mode=loop_continuous
loop_start=50342
loop_xfade=12174
lovel=0
lpc=NdYDQhoEhcLlwxJCjzCvwONJ/j995npAuCy8PxCvxb4krMvABfRUQH/Jy8CWbfhAcBMJwLB58b8DkYZA2HQkwHQITD/fB6Q+dsQyv02P3D29t/A+9/VuvcllX8BrH11A
lpc_rms=-31.52
offset=9537
pitch_keycenter=A#3
sample=Soprano_Shake_PP_A#3.opus
</region>

<region>
hikey=B2
hivel=127
lokey=A#2
loop_end=141232
loop_mode=loop_continuous
loop_start=48616
loop_xfade=11756
lovel=0
lpc=cIHKQdfDc8KzvXRCi3kxws/VAELv6sXBuwTLQVotu8F+ilNBIWHAwNMpYkCfw4q/zGHEv9NWkEB1OsfA6cqQQGw18r9ARwNAuYEgwDCYKT8Z2Fi+WAkoQESWicAjpRpA
lpc_rms=-30.39
offset=8822
pitch_keycenter=A#2
sample=Soprano_Shake_PP_A#2.opus
</region>
</group>

<group>
group_label=MF
lpc_hicc1=84
lpc_locc1=43

<region>
hikey=A4
hivel=127
lokey=G#4
loop_end=137658
loop_mode=loop_continuous
loop_start=47385
loop_xfade=11459
lovel=0
lpc=EUQ3QVCizcFkC+JB59ykwVTrXUHq3R/BucYgQTp0H8GHZddAWiJov3s0Hr/aRgY/69O7PjSyDr/2sYc/6L8lP0LrY8BDQJpAG4gVv+yhKMA/yTVA/q/3PV4k0r8T6Go/
lpc_rms=-20.98
pitch_keycenter=G#4
sample=Soprano_Shake_MF_G#4.opus
</region>

<region>
hikey=A3
hivel=127
lokey=G#3
loop_end=138020
loop_mode=loop_continuous
loop_start=47510
loop_xfade=11489
lovel=0
lpc=ll+IQcnGMcJF8VJCE+QwwiHw60Fq3JXBapmrQe5908GqYb9BUOt7wXJszUD/HwjAv4FKQJ9+kcDzu9BAg/u4wGWJMUCsIwXA2UDlPyAJCMDHBus/WfQnP+JQ9L/s84s/
lpc_rms=-21.15
pitch_keycenter=G#3
sample=Soprano_Shake_MF_G#3.opus
</region>

<region>
hikey=A2
hivel=127
lokey=G#2
loop_end=143064
loop_mode=loop_continuous
loop_start=49246
loop_xfade=11909
lovel=0
lpc=328sQgY8yMIozr5CEeWPwp/aI0JgxyfB69CMQY3BtcFkR3pBW/fpwAzFA8Hn4JFBXZ6dwXz0O0HxnGc/bK5nwMIphD8IAlBAisN4wLnBQL/V0uQ/DKY5wHrayT+iCVY/
lpc_rms=-17.80
offset=9684
pitch_keycenter=G#2
sample=Soprano_Shake_MF_G#2.opus
</region>

<region>
hikey=G4
hivel=127
lokey=F#4
loop_end=135067
loop_mode=loop_continuous
loop_start=46494
loop_xfade=11243
lovel=0
lpc=o6F6QVASCcKFqghCNBHOwVYIoEGhxXHBcsZ+Qaz+ZsH1QdFAa1TjvwweSkBHUwjAFLWDP2cWTjr/HYQ/UcUywNs8eEDb6UzA+k0NQNepecDcOgtBrqzKwKjjyj43DYk/
lpc_rms=-18.99
offset=104
pitch_keycenter=F#4
sample=Soprano_Shake_MF_F#4.opus
</region>

<region>
hikey=G3
hivel=127
lokey=F#3
loop_end=138178
loop_mode=loop_continuous
loop_start=47564
loop_xfade=11502
lovel=0
lpc=BOyxQTt+Y8LVNHtCm7hEwjV+BkJ4r6rBrk6xQZpAycGCOqJB9uZSwa6lAkFemrHALsN2QEWZYcBVVq1AHVpKwH31Fr649Z4/JJYmwBAGMkDnalHATESQQBIflsBTehpA
lpc_rms=-19.57
offset=318
pitch_keycenter=F#3
sample=Soprano_Shake_MF_F#3.opus
</region>

<region>
hikey=F4
hivel=127
lokey=E4
loop_end=139062
loop_mode=loop_continuous
loop_start=47869
loop_xfade=11576
lovel=0
lpc=ANTzQZ3UncJSVrdCTCuSwkVET0LS3hrCOl0xQjUcL8I+pstBeaQMwSPB6T78D5E/S2oEQMJFFUDdLADB0vjuQOu1IsBbxFG/AqFoP+Uk4b0/3XVATWwDwROi+kBzcxXA
lpc_rms=-14.93
pitch_keycenter=E4
sample=Soprano_Shake_MF_E4.opus
</region>

<region>
hikey=F3
hivel=127
lokey=E3
loop_end=138327
loop_mode=loop_continuous
loop_start=47616
loop_xfade=11514
lovel=0
lpc=MBH3QRj5p8LY1shCQ/2vwhrjjUKkFVjC0GhIQjjzO8KNVwhCkjecwe4j50A4twlAMfDuwPzpi0Cv9ERAA3Liv/xYHsBfqz9ArYElwKV+yT8WQ1PAgAqpQCF+h8BnAeY/
lpc_rms=-18.35
offset=405
pitch_keycenter=E3
sample=Soprano_Shake_MF_E3.opus
</region>

<region>
hikey=F5
hivel=127
lokey=D5
loop_end=138261
loop_mode=loop_continuous
loop_start=47593
loop_xfade=11509
lovel=0
lpc=PCzEQeVrc8LsRohCp4NIwjw0CUIsotHBdTPMQYX/n8HxfRNBoGAkwL/kM0CTAjFAGJcKwach/UDOZYjAIlCGQI19AcCq+APB1y2RQciAhMFUuRJAxwRKQf7tM8ECdChA
lpc_rms=-21.02
offset=8
pitch_keycenter=D5
sample=Soprano_Shake_MF_D5.opus
</region>

<region>
hikey=D#4
hivel=127
lokey=D4
loop_end=139664
loop_mode=loop_continuous
loop_start=48076
loop_xfade=11626
lovel=0
lpc=M6sFQqxSvcIXX+xC52W7wsn3bkKSlxDCls32QfKD7MFLoJdB64i0wHStQMBZtepAl98KwecR8UAN+Y/A53FNQG1ogT5OZinAKmdVQLDmhMCJMQ++FXSPQKHZBcDdzgs/
lpc_rms=-14.90
offset=30
pitch_keycenter=D4
sample=Soprano_Shake_MF_D4.opus
</region>

<region>
hikey=D#3
hivel=127
lokey=D3
loop_end=139906
loop_mode=loop_continuous
loop_start=48159
loop_xfade=11646
lovel=0
lpc=HsfgQSEWkcLsnJtCmcZhwsUvBkKQJ37BtUR7Qdpkf8GWvPJA4Fq0v636F8B4C49AqgpKwPqFpLwPMMQ/QoUYwOp1xkBMBq/AfHwaQEOQR8B6rQpAZzItv4J+0L4JJ1I/
lpc_rms=-18.42
offset=878
pitch_keycenter=D3
sample=Soprano_Shake_MF_D3.opus
</region>

<region>
hikey=C#5
hivel=127
lokey=C5
loop_end=148687
loop_mode=loop_continuous
loop_start=51182
loop_xfade=12377
lovel=0
lpc=ywuZQadVJsL7qTFCjoAQwu5A3EFE5ZTB1EVKQT/J5sC7cABAbye0QJgYHcGTB01BPbNDwW/cFkG8enHAgJnrv/KkCkEcoDPBR3VDQUPIOcHg6ChBA1GrwGqcl8BBWsxA
lpc_rms=-25.43
offset=10350
pitch_keycenter=C5
sample=Soprano_Shake_MF_C5.opus
</region>

<region>
hikey=C#4
hivel=127
lokey=C4
loop_end=135586
loop_mode=loop_continuous
loop_start=46672
loop_xfade=11286
lovel=0
lpc=v4rwQVsdp8LabdlC0xbOwhnjpELqc17Cga8qQky/C8KYU6lB4jTmwD8TVMCUHBNBKMYywZCiJ0Ete8HANMlwP4WzWUDXlnLATnQHQMeDgD9aBVbARRNCQLNYf8Dw8VVA
lpc_rms=-17.19
sample=Soprano_Shake_MF_C4.opus
</region>

<region>
hikey=C#3
hivel=127
lokey=C3
loop_end=138081
loop_mode=loop_continuous
loop_start=47531
loop_xfade=11494
lovel=0
lpc=HzATQlzEt8JNZ7NCqoZjwvQxCkKJg6bBw/e1QauOucGzLVpBxeHswAGQaEDplgZA4aW8wD/2QkB5iGo+LLoEwKpXskBY0xzA5tzgP0MT28ALTa5AoHdAwLeVsT05ddY/
lpc_rms=-17.96
offset=6281
pitch_keycenter=C3
sample=Soprano_Shake_MF_C3.opus
</region>

<region>
hikey=B4
hivel=127
lokey=A#4
loop_end=138044
loop_mode=loop_continuous
loop_start=47518
loop_xfade=11491
lovel=0
lpc=AMSbQZt2HsJ+QBtCJSTvwcF0r0GjclzBn7qQQUUcl8H3vjNBMynNwPOpokACRtu/76xyQIk/cT/XwevAnt70QF0t1sDagNNAodd3wF/VGUGRXy3B841IQGa9Gj/hCJg+
lpc_rms=-23.94
offset=51
pitch_keycenter=A#4
sample=Soprano_Shake_MF_A#4.opus
</region>

<region>
hikey=B3
hivel=127
lokey=A#3
loop_end=138922
loop_mode=loop_continuous
loop_start=47821
loop_xfade=11564
lovel=0
lpc=3JS7QaPDdsKFc5pCdNWKwjjzRkLugBDCU44ZQtjZJ8JO0x9C8+P2wdXdo0FfJ1XBG4/UQH+dbcDgv+pAkAkGwcCplEAj7hs/0VynwIYepUAGDFTAzhk0QNM/BcAFiq8/
lpc_rms=-18.88
offset=60
pitch_keycenter=A#3
sample=Soprano_Shake_MF_A#3.opus
</region>

<region>
hikey=B2
hivel=127
lokey=A#2
loop_end=142615
loop_mode=loop_continuous
loop_start=49092
loop_xfade=11871
lovel=0
lpc=ip7tQZThhsIoenZC930owlAarkGFBhTBFK2PQdqYmcEK3lpB0VOJwDHtzsCanuNANzLlwIKzmD+OVbdAG8aWwHmYs0CPCEHAPA9cQGoa5sBN27xA4QXBwEZWPkAfjBA/
lpc_rms=-22.35
offset=5616
pitch_keycenter=A#2
sample=Soprano_Shake_MF_A#2.opus
</region>
</group>

<group>
group_label=FF
lpc_hicc1=127
lpc_locc1=85

<region>
hikey=A4
hivel=127
lokey=G#4
loop_end=138539
loop_mode=loop_continuous
loop_start=47689
loop_xfade=11532
lovel=0
lpc=29scQdD5p8GazbNB5UCKwe2jZkF/iTnB4vMZQbOh2cDNDXdAuOATwLOCjUCQ4XvAmhlDQO4/KcDRtWdAisFewHTCDUCOVXo/OI6ovx4XrD+D6BXA/vCJQGxkPMBTaYM/
lpc_rms=-19.56
pitch_keycenter=G#4
sample=Soprano_Shake_FF_G#4.opus
</region>

<region>
hikey=A3
hivel=127
lokey=G#3
loop_end=138648
loop_mode=loop_continuous
loop_start=47726
loop_xfade=11541
lovel=0
lpc=yVmGQXLqK8JI9TZCjJb5wXLCpUHpNJfBg7+iQTg3W8GA+FxAAJyXP5plK8DunQRApxfVv0ndiUAF63TAfnnFvTtmHEC/c23AP9GJQPsTX8D2GJA/A9WsPzweoL+6V7Q+
lpc_rms=-18.95
pitch_keycenter=G#3
sample=Soprano_Shake_FF_G#3.opus
</region>

<region>
hikey=G4
hivel=127
lokey=F#4
loop_end=138197
loop_mode=loop_continuous
loop_start=47571
loop_xfade=11504
lovel=0
lpc=UEOXQXV+LMI17y5Cntj8wW51pUE72TfB2ZdWQTzzV8ES1ZFAsF8tQFeI7MCvIhZBAwUywJYnpT7UVda/swxlQHigyMBYd31As7wOQBGakMCZUsRAVbCfv0qzq8DtxmxA
lpc_rms=-15.15
offset=45
pitch_keycenter=F#4
sample=Soprano_Shake_FF_F#4.opus
</region>

<region>
hikey=G3
hivel=127
lokey=F#3
loop_end=137403
loop_mode=loop_continuous
loop_start=47298
loop_xfade=11437
lovel=0
lpc=p/Z7QcMTHMLrAx9CXzKwwf9eJUCQ4YVAhv1SQKvZrMA5cEi/jrvMQNJB2cDomPY/aYRQP6X9NL5EF6y+m4SXP84lr79V/0g/tzggP0jK97+oMGw/1LVqPyYWs7/uiks/
lpc_rms=-18.29
offset=314
pitch_keycenter=F#3
sample=Soprano_Shake_FF_F#3.opus
</region>

<region>
hikey=F4
hivel=127
lokey=E4
loop_end=137323
loop_mode=loop_continuous
loop_start=47270
loop_xfade=11431
lovel=0
lpc=8GjTQawxhcJblppCJ7d+wrh9RELaujDCNLU+QvKAF8Jm66lBLZYXwds9/z+LX84/p6i+wJhNOEGdry7B6mkkQRUd1MBtf8g+CYVeQHnUxcCpW9lAdj6NwFPFe0C+wLy/
lpc_rms=-13.19
pitch_keycenter=E4
sample=Soprano_Shake_FF_E4.opus
</region>

<region>
hikey=F3
hivel=127
lokey=E3
loop_end=145364
loop_mode=loop_continuous
loop_start=50038
loop_xfade=12100
lovel=0
lpc=uXIYQvPs1cLh8fhCBue0wmKwX0LiWC7Cz+88QmgfDcL/dJhB9itUwXsNukBgXijAU2cpwF9UQUFVPjTB6WsEQXguysAPWoVA43F4wMTDiD/7bu+/DJR5QJaNs78++tE9
lpc_rms=-18.63
offset=7389
pitch_keycenter=E3
sample=Soprano_Shake_FF_E3.opus
</region>

<region>
hikey=F5
hivel=127
lokey=D5
loop_end=140597
loop_mode=loop_continuous
loop_start=48397
loop_xfade=11703
lovel=0
lpc=VwX8QWYMgcLeHoxCtPpKwsSK6kH51VXBvaOuQbxassG5y6FByU48wQZRUEFjFSLBdcRZQRvydMAdCDFAnKZxwId+j0FegdbBjCXmQQyDgcGVmd6/vqaSQeY8VsHiG7JA
lpc_rms=-20.71
offset=94
pitch_keycenter=D5
sample=Soprano_Shake_FF_D5.opus
</region>

<region>
hikey=D#4
hivel=127
lokey=D4
loop_end=138069
loop_mode=loop_continuous
loop_start=47527
loop_xfade=11493
lovel=0
lpc=XpbvQTGvn8JfUL9Cc2CfwhzqfELF12jCAKWAQjwjZsL1sAhC2Mp7wYRGBkGTU4TAdrixwCiAd0EGqmjBP14hQcKyucAWcl1AJ7a5vnM7ocDK39lAbvzqwJeLA0EQ0lXA
lpc_rms=-12.55
pitch_keycenter=D4
sample=Soprano_Shake_FF_D4.opus
</region>

<region>
hikey=D#3
hivel=127
lokey=D3
loop_end=140097
loop_mode=loop_continuous
loop_start=48225
loop_xfade=11662
lovel=0
lpc=hJPZQac8j8JP6p5CDtRhwmN87EF6Np/BWT4bQrXfSsKmRxhC1kx9wai/e7/VP/C/qRIsQZVgF8EZj3pAZkG8Pk+PMkAZXOjAXLKrQLAvc8C4QYpAD9XUwJVivkBEhLG/
lpc_rms=-20.75
offset=7830
pitch_keycenter=D3
sample=Soprano_Shake_FF_D3.opus
</region>

<region>
hikey=C#5
hivel=127
lokey=C5
loop_end=139121
loop_mode=loop_continuous
loop_start=47889
loop_xfade=11581
lovel=0
lpc=mdyeQtDKDsN2xv1CylyvwhzxiUKG+0DCa1ZLQtdvDsKeAwhCorGTwSD2fkEeGPe/n2D7QGwiQUBohypAXP/rQFOuosCMjqdBlgXjwQo4NkJBIiDCKpxhQrD5o8JwCmJC
lpc_rms=-15.16
offset=117
pitch_keycenter=C5
sample=Soprano_Shake_FF_C5.opus
</region>

<region>
hikey=C#4
hivel=127
lokey=C4
loop_end=136798
loop_mode=loop_continuous
loop_start=47090
loop_xfade=11387
lovel=0
lpc=ezKsQZeaacIJXpVCINiHwpsVSUI9FgDCln3VQfDoxsEta4BBgLelwDocQ8BWyhVBZ+lCwSoyDkG88n6/pm6hwCwK0UC1+mbAD8FbP2axdT9+CMO/V36yP3beH8Bcpg1A
lpc_rms=-16.74
offset=64
sample=Soprano_Shake_FF_C4.opus
</region>

<region>
hikey=C#3
hivel=127
lokey=G#2
loop_end=140601
loop_mode=loop_continuous
loop_start=48398
loop_xfade=11704
lovel=0
lpc=9+foQeRBmML9hp9CqB1UwsNBC0Ls4gDCFRYyQs4+QcJ+6QlCOq6awW+9LkHyjs3AFGYZwGygLUFihMvAU7DDv1ZiO0CA5I8/rYW7wI4TdT9HaghBBskwwTQQxUBmPn+/
lpc_rms=-18.19
offset=8667
pitch_keycenter=C3
sample=Soprano_Shake_FF_C3.opus
</region>

<region>
hikey=B4
hivel=127
lokey=A#4
loop_end=140369
loop_mode=loop_continuous
loop_start=48319
loop_xfade=11684
lovel=0
lpc=Ctm0QTP6WcI8tm5C/G4bwhV4oUHAfGfB9AKqQTGPtsEKMYZBGnxWwaGkR0Gt0iLAvov3wH1aMUHGQNjAYU7CQLhGXsH4Up1BlvZDwRE+zEDvlNDA9qTIQJ+jVsBG1w4/
lpc_rms=-18.28
pitch_keycenter=A#4
sample=Soprano_Shake_FF_A#4.opus
</region>

<region>
hikey=B3
hivel=127
lokey=A#3
loop_end=147135
loop_mode=loop_continuous
loop_start=50648
loop_xfade=12248
lovel=0
lpc=fU3FQVRTfMKENotCxMVLwlvE2kHw4lbBrKmVQZayksF1Q8pAOJpkQBYQ+8B7L95ATCWowPR2FkAhouA/vKsmwPvMFkBx9GS/rI8GQDuNR8CBqUy/o8sYQNDiA8A4beA/
lpc_rms=-20.79
offset=4041
pitch_keycenter=A#3
sample=Soprano_Shake_FF_A#3.opus
</region>
</group>